<?xml version="1.0" standalone="no"?><!DOCTYPE svg PUBLIC "-//W3C//DTD SVG 1.1//EN" "http://www.w3.org/Graphics/SVG/1.1/DTD/svg11.dtd"><svg t="1499389916617" class="icon" style="" viewBox="0 0 1024 1024" version="1.1" xmlns="http://www.w3.org/2000/svg" p-id="3237" xmlns:xlink="http://www.w3.org/1999/xlink" width="32" height="32"><defs><style type="text/css">@font-face { font-family: SimSun; src: local("Microsoft YaHei"); }
@font-face { font-family: 宋体; src: local("Microsoft YaHei"); }
@font-face { font-family: NSimSun; src: local("Microsoft YaHei"); }
@font-face { font-family: 新宋体; src: local("Microsoft YaHei"); }
@font-face { font-family: SimHei; src: local("Microsoft YaHei"); }
@font-face { font-family: 黑体; src: local("Microsoft YaHei"); }
@font-face { font-family: "STHeiti SC"; src: local("PingFang SC"); }
@font-face { font-family: MingLiU; src: local("Microsoft JhengHei"); }
@font-face { font-family: MingLiU-ExtB; src: local("Microsoft JhengHei"); }
@font-face { font-family: MingLiU_HKSCS; src: local("Microsoft JhengHei"); }
@font-face { font-family: MingLiU_HKSCS-ExtB; src: local("Microsoft JhengHei"); }
@font-face { font-family: PMingLiU; src: local("Microsoft JhengHei"); }
@font-face { font-family: PMingLiU-ExtB; src: local("Microsoft JhengHei"); }
@font-face { font-family: "STHeiti TC"; src: local("PingFang TC"); }
@font-face { font-family: Arial; src: local("Segoe UI"); }
@font-face { font-family: Tahoma; src: local("Segoe UI"); }
@font-face { font-family: Verdana; src: local("Segoe UI"); }
@font-face { font-family: Helvetica; src: local("Segoe UI"); }
@font-face { font-family: Courier; src: local("Consolas"); }
@font-face { font-family: "Courier New"; src: local("Consolas"); }
</style></defs><path d="M512 192c179.2 0 320 140.8 320 320s-140.8 320-320 320-320-140.8-320-320S332.8 192 512 192M512 128C300.8 128 128 300.8 128 512s172.8 384 384 384 384-172.8 384-384S723.2 128 512 128L512 128z" p-id="3238" fill="#7f8c97"></path><path d="M640 672c-6.4 0-19.2 0-25.6-6.4l-128-128C486.4 531.2 480 518.4 480 512L480 288C480 268.8 492.8 256 512 256s32 12.8 32 32l0 211.2 121.6 121.6c12.8 12.8 12.8 32 0 44.8C659.2 672 646.4 672 640 672z" p-id="3239" fill="#7f8c97"></path></svg>