<?xml version="1.0" standalone="no"?><!DOCTYPE svg PUBLIC "-//W3C//DTD SVG 1.1//EN" "http://www.w3.org/Graphics/SVG/1.1/DTD/svg11.dtd"><svg t="1506689334203" class="icon" style="" viewBox="0 0 1024 1024" version="1.1" xmlns="http://www.w3.org/2000/svg" p-id="2735" xmlns:xlink="http://www.w3.org/1999/xlink" width="200" height="200"><defs><style type="text/css"></style></defs><path d="M710.4 97.1c-76.3 0-147.5 30.7-198.7 84.5C460 127.8 388.8 97.1 313 97.1c-152.6 0-277 124.9-277 278 0 71.2 26.6 138.2 75.3 190 1 1 1.5 2 2.6 3.1l4.1 4.1 350.7 336.9c11.3 11.3 26.6 17.4 43 17.4s32.3-6.7 44-17.9c11.3-10.2 287.2-273.4 350.7-336.4l3.1-3.1c50.2-52.2 77.8-121.3 77.8-194C987.4 222 863 97.1 710.4 97.1zM313.6 236.9c-78.3 0-141.8 64-141.8 142.3 0 11.8-9.7 21.5-21.5 21.5s-21.5-9.7-21.5-21.5c0-101.9 82.9-184.8 184.3-184.8 11.8 0 21.5 9.7 21.5 21.5 0 11.2-9.2 21-21 21z" fill="#ffffff" p-id="2736" class="selected"></path></svg>