<?xml version="1.0" standalone="no"?><!DOCTYPE svg PUBLIC "-//W3C//DTD SVG 1.1//EN" "http://www.w3.org/Graphics/SVG/1.1/DTD/svg11.dtd"><svg t="1499421494311" class="icon" style="" viewBox="0 0 1152 1024" version="1.1" xmlns="http://www.w3.org/2000/svg" p-id="9148" xmlns:xlink="http://www.w3.org/1999/xlink" width="18" height="16"><defs><style type="text/css">@font-face { font-family: SimSun; src: local("Microsoft YaHei"); }
@font-face { font-family: 宋体; src: local("Microsoft YaHei"); }
@font-face { font-family: NSimSun; src: local("Microsoft YaHei"); }
@font-face { font-family: 新宋体; src: local("Microsoft YaHei"); }
@font-face { font-family: SimHei; src: local("Microsoft YaHei"); }
@font-face { font-family: 黑体; src: local("Microsoft YaHei"); }
@font-face { font-family: "STHeiti SC"; src: local("PingFang SC"); }
@font-face { font-family: MingLiU; src: local("Microsoft JhengHei"); }
@font-face { font-family: MingLiU-ExtB; src: local("Microsoft JhengHei"); }
@font-face { font-family: MingLiU_HKSCS; src: local("Microsoft JhengHei"); }
@font-face { font-family: MingLiU_HKSCS-ExtB; src: local("Microsoft JhengHei"); }
@font-face { font-family: PMingLiU; src: local("Microsoft JhengHei"); }
@font-face { font-family: PMingLiU-ExtB; src: local("Microsoft JhengHei"); }
@font-face { font-family: "STHeiti TC"; src: local("PingFang TC"); }
@font-face { font-family: Arial; src: local("Segoe UI"); }
@font-face { font-family: Tahoma; src: local("Segoe UI"); }
@font-face { font-family: Verdana; src: local("Segoe UI"); }
@font-face { font-family: Helvetica; src: local("Segoe UI"); }
@font-face { font-family: Courier; src: local("Consolas"); }
@font-face { font-family: "Courier New"; src: local("Consolas"); }
</style></defs><path d="M210.208 0.096 941.76 0.096C1057.568 0.096 1151.808 95.68 1151.808 213.088L1151.808 504.576C1151.808 615.904 1067.232 707.456 959.872 716.8L957.856 1024.128 620.16 717.568 210.208 717.568C94.336 717.568 0.064 622.048 0.064 504.576L0.064 213.088C0.064 95.68 94.336 0.096 210.208 0.096ZM746.112 367.232C746.112 401.632 773.536 429.44 807.392 429.44 841.28 429.44 868.704 401.632 868.704 367.232 868.704 332.896 841.28 305.056 807.392 305.056 773.536 305.056 746.112 332.896 746.112 367.232ZM490.592 367.232C490.592 401.632 518.08 429.44 552 429.44 585.856 429.44 613.28 401.632 613.28 367.232 613.28 332.896 585.856 305.056 552 305.056 518.08 305.056 490.592 332.896 490.592 367.232ZM235.2 367.232C235.2 401.632 262.656 429.44 296.544 429.44 330.4 429.44 357.824 401.632 357.824 367.232 357.824 332.896 330.4 305.056 296.544 305.056 262.656 305.056 235.2 332.896 235.2 367.232Z" p-id="9149" fill="#ffffff"></path></svg>